<svg xmlns='http://www.w3.org/2000/svg' height='249.76' width='413.75'><g transform="translate(0,25) scale(1.25)"><line x1="50" y1="0" x2="200" y2="0" stroke-width="1.3" stroke="black"></line><line x1="50" y1="39.936" x2="200" y2="39.936" stroke-width="1.3" stroke="black"></line><line x1="150" y1="91.136" x2="300" y2="91.136" stroke-width="1.3" stroke="black"></line><line x1="150" y1="131.072" x2="300" y2="131.072" stroke-width="1.3" stroke="black"></line><text font-family="arial" font-size="8pt" font-style="regular" fill="#3c53ab" x="97" y="-2" text-anchor="end">ES = 0.039</text><text font-family="arial" font-size="8pt" font-style="regular" fill="#3c53ab" x="97" y="37.936" text-anchor="end">EI = 0</text><text font-family="arial" font-size="8pt" font-style="regular" fill="#3c53ab" x="253" y="89.136" text-anchor="start">es = -0.050</text><text font-family="arial" font-size="8pt" font-style="regular" fill="#3c53ab" x="253" y="129.072" text-anchor="start">ei = -0.089</text><line x1="180" y1="0" x2="180" y2="181.072" stroke-width="1.25" stroke="black"></line><line x1="185" y1="39.936" x2="185" y2="156.072" stroke-width="1.25" stroke="black"></line><text font-family="arial" font-size="8pt" font-style="regular" fill="#3c53ab" x="182" y="181.072" text-anchor="start">Smax = 0.128</text><text font-family="arial" font-size="8pt" font-style="regular" fill="#3c53ab" x="187" y="156.072" text-anchor="start">Smin = 0.05</text><line x1="0" y1="39.936" x2="300" y2="39.936" stroke-width="1.3" stroke="black"></line><line x1="15" y1="39.936" x2="15" y2="156.072" stroke-width="1.3" stroke="black"></line><text font-family="arial" font-size="10pt" font-style="regular" fill="#3c53ab" x="2" y="37.936" text-anchor="start">0</text><text font-family="arial" font-size="15pt" font-style="regular" fill="#3c53ab" x="17" y="156.072" text-anchor="start">49</text><path d="M0,-5.26429605180997L6.078685485212741,5.26429605180997 -6.078685485212741,5.26429605180997Z" transform="translate(180,2.25) scale(0.35,0.6)" stroke-width="1" fill="black"></path><path d="M0,5.26429605180997L6.078685485212741,-5.26429605180997 -6.078685485212741,-5.26429605180997Z" transform="translate(180,128.822) scale(0.35,0.6)" stroke-width="1" fill="black"></path><path d="M0,-5.26429605180997L6.078685485212741,5.26429605180997 -6.078685485212741,5.26429605180997Z" transform="translate(185,42.186) scale(0.35,0.6)" stroke-width="1" fill="black"></path><path d="M0,5.26429605180997L6.078685485212741,-5.26429605180997 -6.078685485212741,-5.26429605180997Z" transform="translate(185,88.886) scale(0.35,0.6)" stroke-width="1" fill="black"></path><path d="M0,-5.26429605180997L6.078685485212741,5.26429605180997 -6.078685485212741,5.26429605180997Z" transform="translate(15,43.936) scale(0.6,1)" stroke-width="1" fill="black"></path><rect x="100" y="0" height="39.936" width="50" stroke-width="0.75" style="fill: rgb(255, 255, 153); stroke: rgb(0, 0, 0);"></rect><rect x="200" y="91.136" height="39.936" width="50" stroke-width="0.75" style="fill: rgb(153, 153, 153); stroke: rgb(0, 0, 0);"></rect><text font-family="arial" font-size="12pt" font-style="regular" text-anchor="middle" fill="#600600" x="125" y="25.968"></text><text font-family="arial" font-size="12pt" font-style="regular" text-anchor="middle" fill="#600600" x="225" y="117.104"></text></g></svg>